<?xml version="1.0" encoding="utf-8"?>
<!-- Generator: Adobe Illustrator 18.1.1, SVG Export Plug-In . SVG Version: 6.00 Build 0)  -->
<svg version="1.1" id="Layer_1" xmlns="http://www.w3.org/2000/svg" xmlns:xlink="http://www.w3.org/1999/xlink" x="0px" y="0px"
	 viewBox="0 0 560 560" style="enable-background:new 0 0 560 560;" xml:space="preserve">
<style type="text/css">
	.st0{fill:#E21414;}
</style>
<g id="_x31_" transform="matrix(1.5421564,0,0,1.5421564,148.7686,-598.51789)">
	<g id="g13605" transform="matrix(0,2.7249422,2.7249422,0,129.07155,656.47605)">
		<path id="path13607" class="st0" d="M-40.4-26.1c0-2.3,1.1-5,3.2-6.6l0,0l0,0l-2.9,0v-5.5h20.2
			v5.5h-11.5c-2.1,0-4.3,1.6-4.3,4.6c0,2.3,1.6,4.7,4.3,4.7h11.5v5.5h-12.5C-37.1-17.9-40.4-21.2-40.4-26.1"/>
	</g>
	<g id="_x36_" transform="matrix(0,2.7249422,2.7249422,0,247.76404,657.32296)">
		<path id="path13611" class="st0" d="M-40.4-22.1l13.8-5l-13.8-5v-6.3l20.2,8.3v6.1l-20.2,8.3
			V-22.1z"/>
	</g>
	<g id="_x35_" transform="matrix(0,2.7249422,2.7249422,0,57.56743,672.48808)">
		<path id="path13615" class="st0" d="M-39.9-28.6c-1.3,0.9-2,2.4-2,4.3c0,2,1.1,3.5,2.8,4.3
			l4-9.7C-37.1-29.9-38.7-29.4-39.9-28.6 M-32-17.9c1.7-2.3,2.1-3.7,2.1-5.8c0-1.9-0.6-3.4-1.6-4.5L-37.4-14
			c-2.2-0.3-4.1-1.1-5.6-2.4c-2.2-1.9-3.3-4.6-3.3-8c0-6.1,4.5-10.7,10.4-10.7c6.1,0,10.4,4.6,10.4,11.3c0,3.8-1.8,7.6-3.9,9.4
			L-32-17.9z"/>
	</g>
	<g id="_x34_" transform="matrix(0,2.7249422,2.7249422,0,39.971116,694.96858)">
		<path id="path13619" class="st0" d="M-39.1-29.2v-12.6h-21.1v-5.6H-34v18.2H-39.1z"/>
	</g>
	<g id="_x33_" transform="matrix(0,2.7249422,2.7249422,0,288.37412,668.31919)">
		<path id="path13623" class="st0" d="M-40-20.7c0-3.1,2.3-5.3,5.7-5.3c3.2,0,5.7,2.4,5.7,5.4
			c0,3.1-2.4,5.3-5.7,5.3C-37.5-15.3-40-17.6-40-20.7 M-23.9-20.7c0-6.1-4.5-10.8-10.4-10.8c-5.9,0-10.4,4.8-10.4,10.9
			c0,6.1,4.5,10.8,10.4,10.8C-28.5-9.8-23.9-14.6-23.9-20.7"/>
	</g>
	<g id="_x32_" transform="matrix(0,2.7249422,2.7249422,0,181.94605,668.31919)">
		<path id="path13627" class="st0" d="M-40-24.3c0-3.1,2.3-5.3,5.7-5.3c3.2,0,5.7,2.4,5.7,5.4
			c0,3.1-2.4,5.3-5.7,5.3C-37.5-18.9-40-21.3-40-24.3 M-23.9-24.3c0-6.1-4.5-10.8-10.4-10.8c-5.9,0-10.4,4.8-10.4,10.9
			c0,6.1,4.5,10.8,10.4,10.8C-28.5-13.4-23.9-18.2-23.9-24.3"/>
	</g>
</g>
</svg>
