<?xml version="1.0" encoding="utf-8"?>
<!-- Generator: Adobe Illustrator 19.2.1, SVG Export Plug-In . SVG Version: 6.00 Build 0)  -->
<svg version="1.1" id="Layer_1" xmlns="http://www.w3.org/2000/svg" xmlns:xlink="http://www.w3.org/1999/xlink" x="0px" y="0px"
	 viewBox="0 0 560 560" style="enable-background:new 0 0 560 560;" xml:space="preserve">
<style type="text/css">
	.st0{fill:#B81D24;}
</style>
<g id="layer1" transform="translate(-384.28572,-428.81172)">
	<g id="g3235" transform="matrix(2.5445375,0,0,2.5445375,1157.1714,-1457.8678)">
		<path id="path3015" class="st0" d="M-116,875.7c3,0.3,6.1,0.6,9.1,0.9l6.7-16.5l6.4,18.1c3.3,0.4,6.5,0.8,9.8,1.3l-11.2-31.7
			l11.2-27.6h-9.5l-0.1,0.1l-6,14.9l-5.3-15h-9.3l9.6,27.4L-116,875.7z"/>
		<path id="path3019" class="st0" d="M-123.1,875v-54.9h-9.3v54.1C-129.3,874.5-126.2,874.8-123.1,875"/>
		<path id="path3023" class="st0" d="M-193.2,872c2.5,0,5,0,7.6,0v-20.2h11.2v-8.6h-11.2v-14.5h12.9v-8.6h-22.3V872
			C-194.4,872-193.8,872-193.2,872"/>
		<path id="path3035" class="st0" d="M-222.2,872.5c3.1-0.1,6.2-0.2,9.3-0.3v-43.4h8.7v-8.6h-26.8v8.6h8.7V872.5L-222.2,872.5z"/>
		<path id="path3039" class="st0" d="M-293.6,878.3v-32.7l11.1,31.4c3.4-0.4,6.8-0.7,10.2-1.1v-55.7h-9V854l-11.9-33.9h-0.4h-9v59.3
			h0.1C-299.5,879-296.6,878.6-293.6,878.3"/>
		<path id="path3051" class="st0" d="M-239.9,828.8v-8.6h-22.3v46.2v8.6v0c7.4-0.6,14.8-1.2,22.3-1.6v0v-2.5v-6.1
			c-4.3,0.3-8.6,0.5-12.9,0.9v-13.7h11.2v-8.6h-11.2v-14.5L-239.9,828.8L-239.9,828.8z"/>
		<path id="path3055" class="st0" d="M-154.3,864.3v-44.2h-9.4v43.7v8.6v0c7.5,0.3,14.9,0.7,22.3,1.1v0v-2.8v-5.8
			C-145.6,864.8-149.9,864.5-154.3,864.3"/>
	</g>
</g>
</svg>
