<?xml version="1.0" encoding="utf-8"?>
<!-- Generator: Adobe Illustrator 20.1.0, SVG Export Plug-In . SVG Version: 6.00 Build 0)  -->
<svg version="1.1" id="Layer_1" xmlns="http://www.w3.org/2000/svg" xmlns:xlink="http://www.w3.org/1999/xlink" x="0px" y="0px"
	 viewBox="0 0 560 560" style="enable-background:new 0 0 560 560;" xml:space="preserve">
<style type="text/css">
	.st0{fill:#4885ED;}
	.st1{fill:#DB3236;}
	.st2{fill:#F4C20D;}
	.st3{fill:#3CBA54;}
</style>
<path id="path2998" class="st0" d="M142.4,254.2H79.2V273H124c-2.2,26.3-24.1,37.5-44.7,37.5c-26.4,0-49.5-20.8-49.5-49.9
	c0-28.4,22-50.2,49.5-50.2c21.3,0,33.8,13.6,33.8,13.6l13.1-13.6c0,0-16.9-18.8-47.6-18.8c-39.1,0-69.4,33-69.4,68.7
	c0,35,28.5,69,70.4,69c36.9,0,63.9-25.3,63.9-62.6C143.5,258.8,142.4,254.2,142.4,254.2L142.4,254.2z"/>
<path id="path3000" class="st1" d="M194.1,240.6c-25.9,0-44.5,20.3-44.5,43.9c0,24,18,44.6,44.8,44.6c24.3,0,44.1-18.5,44.1-44.1
	C238.6,255.7,215.5,240.6,194.1,240.6L194.1,240.6z M194.4,258c12.8,0,24.8,10.3,24.8,26.9c0,16.3-12,26.9-24.9,26.9
	c-14.1,0-25.3-11.3-25.3-27C169.1,269.5,180.1,258,194.4,258L194.4,258z"/>
<path id="path3005" class="st2" d="M290.9,240.6c-25.9,0-44.5,20.3-44.5,43.9c0,24,18,44.6,44.8,44.6c24.3,0,44.1-18.5,44.1-44.1
	C335.4,255.7,312.3,240.6,290.9,240.6L290.9,240.6z M291.2,258c12.8,0,24.8,10.3,24.8,26.9c0,16.3-12,26.9-24.9,26.9
	c-14.1,0-25.3-11.3-25.3-27C265.9,269.5,276.9,258,291.2,258L291.2,258z"/>
<path id="path3007" class="st0" d="M385.9,240.7c-23.8,0-42.5,20.8-42.5,44.2c0,26.6,21.7,44.3,42.1,44.3c12.6,0,19.3-5,24.3-10.8
	v8.7c0,15.3-9.3,24.4-23.3,24.4c-13.5,0-20.3-10.1-22.7-15.8l-17,7.1c6,12.8,18.2,26.1,39.8,26.1c23.7,0,41.7-14.9,41.7-46.2v-79.6
	h-18.6v7.5C404,244.7,396.2,240.7,385.9,240.7L385.9,240.7z M387.6,258c11.7,0,23.6,10,23.6,27c0,17.3-12,26.8-23.9,26.8
	c-12.7,0-24.5-10.3-24.5-26.7C362.9,268.2,375.1,258,387.6,258L387.6,258z"/>
<path id="path3011" class="st1" d="M510.9,240.6c-22.4,0-41.3,17.9-41.3,44.2c0,27.9,21,44.4,43.5,44.4c18.7,0,30.2-10.2,37.1-19.4
	l-15.3-10.2c-4,6.2-10.6,12.2-21.7,12.2c-12.4,0-18.2-6.8-21.7-13.4l59.4-24.6l-3.1-7.2C541.9,252.4,528.6,240.6,510.9,240.6
	L510.9,240.6z M511.6,257.6c8.1,0,13.9,4.3,16.4,9.5l-39.6,16.6C486.7,270.8,498.8,257.6,511.6,257.6L511.6,257.6z"/>
<path id="path3015" class="st3" d="M441.3,326.6h19.5V196.1h-19.5V326.6z"/>
</svg>
