<?xml version="1.0" encoding="utf-8"?>
<!-- Generator: Adobe Illustrator 19.2.1, SVG Export Plug-In . SVG Version: 6.00 Build 0)  -->
<svg version="1.1" id="Layer_1" xmlns="http://www.w3.org/2000/svg" xmlns:xlink="http://www.w3.org/1999/xlink" x="0px" y="0px"
	 viewBox="0 0 512 512" style="enable-background:new 0 0 512 512;" xml:space="preserve">
<style type="text/css">
	.st0{fill:#007AC2;}
</style>
<path id="path5" class="st0" d="M315.7,70.2c-8.7,1.9-85,11.9-94.5,16.6c-2.2,4.4-6.7,18-8.2,20.3c-6.1,1.3-31,6.1-32.5,7
	c-0.8,2.6-6.6,13.8-7.9,15.1c-5.3,1.3-29.8,5.9-32.9,8c-1.8,10.5-8.4,115.7,35.4,184.4s120.4,114.6,140.5,119h0.2
	c20.2-4.4,96.6-50.1,140.4-118.9c43.8-68.8,37.3-174,35.5-184.4c-3.1-2.2-27.6-6.7-32.9-8c-1.3-1.3-7-12.5-7.9-15.1
	c-1.5-0.9-26.4-5.6-32.5-7c-1.4-2.2-6-15.8-8.2-20.3C400.8,82.1,324.4,72.1,315.7,70.2z M315.7,97c7.6,1.6,72.8,10.3,80.8,14.4
	c1.9,3.7,5.7,15.4,7,17.2c5.3,1.1,26.7,5,28,5.9c0.8,2.2,5.6,11.9,6.6,13.1c4.5,1.1,25.5,4.9,28.1,6.7c1.5,9,7.1,98.8-30.3,157.6
	s-102.8,98-120,101.8h-0.2c-17.2-3.7-82.6-42.9-120-101.7s-32-148.7-30.4-157.7c2.6-1.9,23.6-5.6,28.1-6.7
	c1.1-1.1,5.9-10.8,6.6-13.1c1.3-0.8,22.5-4.7,27.8-5.9c1.2-1.9,5.3-13.5,7.1-17.2C243.1,107.4,308.2,98.6,315.7,97z"/>
<path id="path9" class="st0" d="M327.6,125.9c-2.4,0.3-2.8,2-2.8,2.7c-0.5,84.1-0.3,173.4-0.9,259.8c0.5,2.8,4.9-1.4,7.4-2.8
	c31.9-17.6,131.4-113.9,74.3-148.5c43.8-28.7,36-56,16.6-70.9c-40.1-30.9-86-38.5-91.3-40C329.5,125.8,328.6,125.7,327.6,125.9z
	 M354.4,160.4c0.6-0.3,26.3,9.3,40.5,18.8c16.1,11,10.7,21.5,1.3,28c-5,3.4-36.8,26.2-42,27.5C354,230.3,353.9,180.9,354.4,160.4z
	 M377.9,256.6c3.5,0.2,6.9,1.2,9.3,3.8c2.2,2.1,11.9,12.4-8.7,42.1c-7.6,13.5-23.6,30.4-25.4,32c-0.2,0.1-0.3-0.3-0.5-0.2
	c0.2-9.7-0.2-56.4,0.5-69.5C354.2,264.4,367.3,256.3,377.9,256.6z"/>
<path id="path15" class="st0" d="M218.9,156.1c-2.6,1.1-25,15.4-27.2,17.6c-0.6,19.8,4.7,73.3,24.2,115.1c2.4,5.3,5.1,10.2,8.1,14.7
	c5.6,9.7,6,8.9,12.4-0.3c4.5-6.1,11-15.1,12.6-17c2.2,7.5,16.7,54.2,37.1,82.4c9.1,12.5,23,24.4,22.9,19.4
	c-0.5-47.7-1.9-254.1-0.4-262.5c-6-0.2-25.7,2.4-29.6,4.5c-0.3,7.6,2.8,149.1,0.8,165.1C266,261.4,261.2,172.5,264,135.8
	c-7.5,1.5-25.7,8.8-28.3,11.4c-3.4,6.7,1.2,80.7,6,105.4c-1.6,2.6-6.3,9.6-7.1,10.7C225.1,246.3,216,193.8,218.9,156.1z"/>
</svg>
