<?xml version="1.0" encoding="utf-8"?>
<!-- Generator: Adobe Illustrator 19.2.1, SVG Export Plug-In . SVG Version: 6.00 Build 0)  -->
<svg version="1.1" id="Layer_1" xmlns="http://www.w3.org/2000/svg" xmlns:xlink="http://www.w3.org/1999/xlink" x="0px" y="0px"
	 viewBox="0 0 560 560" style="enable-background:new 0 0 560 560;" xml:space="preserve">
<style type="text/css">
	.st0{fill:#1C1C1C;}
</style>
<path class="st0" d="M534,341.9h7.5v1.5h-3v9.5H537v-9.5h-3V341.9z M549.1,350.5H548l-3.2-5v7.4h-1.6v-10.9h1.1l4.2,6.7l4.2-6.7h1.1
	v10.9h-1.6v-7.4L549.1,350.5z M7.6,352.8h43.1V107.2H7.6V352.8z M160.6,174.9c-52.1,0-93.2,39.7-93.2,91.5c0,51.8,41,91.5,93.2,91.5
	c52.1,0,93.2-39.7,93.2-91.5C253.8,214.5,212.8,174.9,160.6,174.9z M160.6,316.1c-27.6,0-49.5-21.9-49.5-50.1
	c0-27.9,21.9-49.4,49.5-49.4c27.9,0,49.8,21.5,49.8,49.8C210.4,294.6,188.6,316.1,160.6,316.1z M361.8,414
	c-27.6,0-49.5-21.5-49.5-49.4h-43.7c0,51.8,41,91.5,93.2,91.5c52.1,0,93.2-39.7,93.2-91.5h-43.7C411.2,392.5,389.4,414,361.8,414z
	 M472.1,352.8h43.1V180.2h-43.1V352.8z M493.3,102.5c-15.8,0-28.3,12.4-28.3,28.6c0,15.8,12.4,28.3,28.3,28.3
	c16.5,0,28.9-12.4,28.9-28.3C522.3,115,509.8,102.5,493.3,102.5z M453.3,214.5v-34.3h-60.6c-9.8-3.4-20.2-5.4-30.9-5.4
	c-52.1,0-93.2,39.7-93.2,91.5c0,51.8,41,91.5,93.2,91.5c52.1,0,93.2-39.7,93.2-91.5c0-17.5-4.7-34.6-14.1-47.4L453.3,214.5z
	 M361.8,316.1c-27.6,0-49.5-21.9-49.5-50.1c0-27.9,21.9-49.4,49.5-49.4c27.9,0,49.8,21.5,49.8,49.8
	C411.6,294.6,389.7,316.1,361.8,316.1z"/>
</svg>
